<svg width="24" height="24" fill="none" xmlns="http://www.w3.org/2000/svg"><path fill="#fff" style="mix-blend-mode:multiply" d="M0 0h24v24H0z"/><path d="M20.933 13.41A9.045 9.045 0 0010.59 3.067a5.467 5.467 0 00-7.5 7.5c-.084.473-.13.953-.135 1.433a9.045 9.045 0 0010.455 8.933 5.468 5.468 0 007.5-7.5l.023-.023zm-4.636 2.7a3.75 3.75 0 01-1.68 1.298 6.751 6.751 0 01-2.61.465A6.309 6.309 0 019 17.25a3.901 3.901 0 01-1.365-1.222 2.693 2.693 0 01-.525-1.5 1.02 1.02 0 01.323-.75 1.17 1.17 0 01.817-.278c.249-.005.491.08.683.24.209.196.37.437.472.705.13.313.296.61.495.885.198.254.456.455.75.585.4.172.833.251 1.268.233a3 3 0 001.755-.465 1.35 1.35 0 00.667-1.148 1.155 1.155 0 00-.352-.877 2.316 2.316 0 00-.938-.525c-.39-.128-.908-.255-1.56-.398-.75-.174-1.48-.42-2.182-.735a3.585 3.585 0 01-1.418-1.05 2.625 2.625 0 01-.525-1.657 2.737 2.737 0 01.555-1.68c.418-.52.974-.91 1.605-1.125A7.133 7.133 0 0112 6.128a6.473 6.473 0 011.943.262c.494.147.959.38 1.372.69.325.244.596.553.795.908.162.286.25.608.255.937a1.049 1.049 0 01-.322.75 1.073 1.073 0 01-.803.345.938.938 0 01-.668-.21 2.521 2.521 0 01-.487-.652 2.841 2.841 0 00-.788-.983 2.348 2.348 0 00-1.462-.345 2.73 2.73 0 00-1.5.375 1.08 1.08 0 00-.57.9.863.863 0 00.188.563c.15.173.333.313.54.412.22.114.45.204.69.27.24.068.63.165 1.177.293.69.15 1.305.315 1.867.495a5.7 5.7 0 011.425.66c.386.244.704.582.923.982a3 3 0 01.3 1.47 3.18 3.18 0 01-.578 1.86z" fill="#fff"/></svg>