<svg width="24" height="24" fill="none" xmlns="http://www.w3.org/2000/svg"><path fill="#fff" style="mix-blend-mode:multiply" d="M0 0h24v24H0z"/><path d="M8.94 18.705a9.57 9.57 0 009.63-9.63v-.443a7.05 7.05 0 001.68-1.747c-.618.27-1.273.45-1.942.532a3.42 3.42 0 001.5-1.875 6.668 6.668 0 01-2.145.825 3.39 3.39 0 00-5.776 3.083 9.592 9.592 0 01-6.975-3.533 3.382 3.382 0 001.05 4.5 3.353 3.353 0 01-1.5-.42v.038a3.397 3.397 0 002.663 3.338 3.397 3.397 0 01-1.5.06A3.383 3.383 0 008.76 15.75a6.788 6.788 0 01-4.207 1.5 7.333 7.333 0 01-.803-.067 9.577 9.577 0 005.19 1.5" fill="#fff"/></svg>