<svg width="24" height="24" fill="none" xmlns="http://www.w3.org/2000/svg"><path fill="#fff" style="mix-blend-mode:multiply" d="M0 0h24v24H0z"/><path d="M16.804 8.276a1.08 1.08 0 100-2.16 1.08 1.08 0 000 2.16zM12 7.378a4.622 4.622 0 100 9.244 4.622 4.622 0 000-9.244zM12 15a3 3 0 110-5.999A3 3 0 0112 15z" fill="#fff"/><path d="M12 4.622c2.403 0 2.688.009 3.637.052.57.007 1.136.112 1.671.31a2.982 2.982 0 011.708 1.708c.198.535.303 1.1.31 1.671.043.95.052 1.234.052 3.637s-.009 2.688-.052 3.637a4.982 4.982 0 01-.31 1.671 2.98 2.98 0 01-1.708 1.708 4.98 4.98 0 01-1.671.31c-.95.043-1.234.052-3.637.052s-2.688-.009-3.637-.052a4.981 4.981 0 01-1.671-.31 2.981 2.981 0 01-1.708-1.708 4.982 4.982 0 01-.31-1.671c-.043-.95-.052-1.234-.052-3.637s.009-2.688.052-3.637c.007-.57.112-1.136.31-1.67a2.981 2.981 0 011.708-1.709 4.981 4.981 0 011.671-.31c.95-.043 1.234-.052 3.637-.052zM12 3c-2.444 0-2.75.01-3.71.054a6.605 6.605 0 00-2.185.419 4.602 4.602 0 00-2.633 2.632 6.605 6.605 0 00-.418 2.185C3.01 9.25 3 9.556 3 12s.01 2.75.054 3.71c.015.747.157 1.486.419 2.185a4.602 4.602 0 002.632 2.633c.7.262 1.438.403 2.185.418.96.044 1.266.054 3.71.054s2.75-.01 3.71-.054a6.608 6.608 0 002.185-.419 4.602 4.602 0 002.633-2.632c.262-.7.403-1.438.418-2.185.044-.96.054-1.266.054-3.71s-.01-2.75-.054-3.71a6.606 6.606 0 00-.419-2.185 4.603 4.603 0 00-2.632-2.632 6.605 6.605 0 00-2.185-.418C14.75 3.01 14.444 3 12 3z" fill="#fff"/></svg>