<svg width="24" height="24" fill="none" xmlns="http://www.w3.org/2000/svg"><path fill="#fff" style="mix-blend-mode:multiply" d="M0 0h24v24H0z"/><path d="M12 1.5a10.5 10.5 0 00-3.825 20.25 9.93 9.93 0 010-3l1.237-5.25a3.787 3.787 0 01-.285-1.5c0-1.455.848-2.55 1.898-2.55a1.32 1.32 0 011.327 1.5c0 .9-.57 2.25-.87 3.495a1.5 1.5 0 001.56 1.898c1.86 0 3.3-1.973 3.3-4.808a4.147 4.147 0 00-4.387-4.275 4.546 4.546 0 00-4.74 4.56 4.065 4.065 0 00.75 2.393.33.33 0 01.075.3c-.083.33-.263 1.05-.293 1.192-.03.143-.157.232-.352.143-1.313-.616-2.13-2.528-2.13-4.073 0-3.308 2.407-6.353 6.938-6.353 3.637 0 6.472 2.596 6.472 6.068 0 3.615-2.25 6.525-5.453 6.525a2.821 2.821 0 01-2.407-1.2l-.652 2.497a11.659 11.659 0 01-1.306 2.753c1.02.301 2.08.448 3.143.435a10.5 10.5 0 100-21z" fill="#fff"/></svg>