<svg width="24" height="24" fill="none" xmlns="http://www.w3.org/2000/svg"><path fill="#fff" style="mix-blend-mode:multiply" d="M0 0h24v24H0z"/><path d="M12 12H3v1.5h9V12zM9 8.25H1.5v1.5H9v-1.5z" fill="#2A254B"/><path d="M22.44 12.455l-2.25-5.25a.749.749 0 00-.69-.455h-2.25v-1.5a.75.75 0 00-.75-.75h-12V6h11.25v9.417a2.992 2.992 0 00-1.393 1.833H9.643a3 3 0 100 1.5h4.714a2.985 2.985 0 005.786 0h1.607a.75.75 0 00.75-.75v-5.25a.747.747 0 00-.06-.295zM6.75 19.5a1.5 1.5 0 110-3 1.5 1.5 0 010 3zm10.5-11.25h1.756L20.613 12H17.25V8.25zm0 11.25a1.5 1.5 0 110-3 1.5 1.5 0 010 3zM21 17.25h-.857A2.996 2.996 0 0017.25 15v-1.5H21v3.75z" fill="#2A254B"/></svg>